<?xml version="1.0" encoding="utf-8"?>
<!-- Generator: Adobe Illustrator 19.0.0, SVG Export Plug-In . SVG Version: 6.00 Build 0)  -->
<svg version="1.1" id="Camada_1" xmlns="http://www.w3.org/2000/svg" xmlns:xlink="http://www.w3.org/1999/xlink" x="0px" y="0px"
	 viewBox="0 0 100 100" style="enable-background:new 0 0 100 100;" xml:space="preserve">
<style type="text/css">
	.st0{stroke:#FF0000;stroke-miterlimit:10;}
</style>
<path class="st0" d="M90.9,40.9C90.9,18.3,72.6,0,50,0S9.1,18.3,9.1,40.9C9.1,99.4,61,100,90.9,100C77,71.6,90.9,78.7,90.9,40.9z
	 M21.8,32.9c4-4,11.6-3,11.6-3s1,7.5-3,11.6c-4,4-9.2,5.4-11.6,3C16.4,42.1,17.8,36.9,21.8,32.9z M51.9,70.2C49.1,70.4,46,63,46,63
	s-3.5,7.1-6.1,7.2c-2.7,0.1-7-7.2-7-7.2s-0.4,6.9-2.2,7.2c-5.1,0.8-16.4-14-12.1-17c2.3-1.6,8.2,7.4,8.2,7.4s3.2-7.3,5.5-7.4
	c2.4-0.1,6.3,7.4,6.3,7.4s5.5-7.7,8.2-7.4c2.2,0.3,4.9,7.4,4.9,7.4s6.9-8.9,9.4-7.4C65.8,56.1,57.3,69.9,51.9,70.2z M61.3,44.5
	c-2.4,2.4-7.5,1-11.6-3c-4-4-3-11.6-3-11.6s7.5-1,11.6,3S63.7,42.1,61.3,44.5z"/>
</svg>
