<?xml version="1.0" encoding="utf-8"?>
<!-- Generator: Adobe Illustrator 19.0.0, SVG Export Plug-In . SVG Version: 6.00 Build 0)  -->
<svg version="1.1" id="Camada_1" xmlns="http://www.w3.org/2000/svg" xmlns:xlink="http://www.w3.org/1999/xlink" x="0px" y="0px"
	 viewBox="0 0 100 100" style="enable-background:new 0 0 100 100;" xml:space="preserve">
<style type="text/css">
	.st0{stroke:#FF0000;stroke-miterlimit:10;}
</style>
<path id="XMLID_1_" class="st0" d="M66.1,61.7c-0.2,0.5-0.3,1-0.6,1.6c-0.2,0.4-0.6,0.8-1,1.2c-0.4-0.4-0.9-0.8-1.3-1.3
	c-0.1-0.1-0.1-0.3,0-0.4c0.8-2.9-0.9-5.1-2.3-7.3c-1.5-2.3-3.3-2.6-5.3-0.7c-0.3,0.3-0.6,0.6-1,0.8c-1.4,1.1-1.7,2.5-0.5,3.6
	c2.2,2.2,2.7,4.9,3.3,7.7c0.6,2.5,1.1,5,1.7,7.5c0.5,2.1,1.9,3.6,3.8,4.7c0.7,0.4,1.3,0.4,1.8-0.3c-0.1-0.4-0.3-0.7-0.4-1
	c-0.3-1,0.1-1.6,1.1-1.8c1.3-0.2,2.6,0.4,3.2,1.6c0.2,0.3,0.6,0.6,0.7,0.7c0.7-0.6,1.3-1.3,1.8-1.3c0.4,0,1,0.7,1.4,1.2
	c0.5,0.7,1.3,0.8,1.6,0c0.4-0.8,1-1.2,1.9-1s1.6,0.7,1.8,1.7c0.1,0.3,0.5,0.5,0.8,0.8c0.1-0.1,0.2-0.2,0.4-0.3c0-0.3,0-0.5,0-0.8
	c0.1-1.1,0.8-1.5,1.7-1.7c1.1-0.2,1.4,0.6,1.6,1.4s0.5,1.2,1.3,0.8c0.1-0.9-1.1-2.1,0.4-2.6c1.9-0.7,1.6,1.5,2.8,2.4
	c0.1-0.5,0.2-0.9,0.2-1.3c0.1-0.8,0.1-1.6,0.4-2.3c0.1-0.4,0.8-0.8,1.2-0.8c0.4,0,0.7,0.7,0.9,1.1c0.2,0.3,0.2,0.7,0.3,1.1
	c1.5-0.2,0.7-1.2,0.8-1.9c0.1-0.5,0.1-1.1,0.4-1.4c0.3-0.2,1-0.1,1.2-0.1c0.8-0.6,1.4-1.3,2.2-1.6c0.8-0.3,1.2,0.3,1.5,1.2
	c1,3.8,1.2,7.7,2.9,11.3c1.6,3.4,1.3,4.7-1.7,6.9c-2.8,2-5.6,3.9-8.6,5.6c-2.7,1.6-5.8,1.2-8.7,0.5c-3.3-0.8-6.4-2.1-9.7-2.9
	c-4.5-1.1-9-2-13.5-2.8c-2.6-0.5-4.2-1.8-5.1-4.2c-1.1-2.8-2.4-5.5-3.5-8.3c-1.1-3-2.9-5.6-5.1-7.8c-0.6-0.6-1.2-1.1-1.7-1.7
	c-1.2-1.7-2.7-2.4-4.8-2.1c-0.6,0.1-1.2-0.4-1.8-0.6c0.2-0.6,0.3-1.3,0.7-1.8c1.2-1.6,3.1-2.9,3.1-5c0.1-2.8,1.6-4.6,3.6-6.4
	c2-1.8,2.2-3.7,1.1-5.8c-2-3.7-4-7.3-6-11c-0.1-0.2-0.3-0.3-0.6-0.8c0.1,0.7,0.1,1.1,0.1,1.4c0.8,3.9,2.1,7.7,4.1,11.2
	c1.1,2,1.1,2.5-0.8,3.8c-1.9,1.4-3,3.3-3.9,5.4c-1.4,3.2-2.8,6.4-5.5,8.9c-1.1,1-0.7,2.1,0.8,2.2c1.5,0.2,3,0,4.5-0.1
	c2.5-0.2,2.7,0.1,3.8,2.3c0.5,1,1.3,1.9,2.2,2.6c2.2,1.7,3.7,3.9,4.3,6.6c0.3,1.4,0,2.5-1.3,3.2C39,86.9,33,87.4,27,84.3
	c-7.6-3.8-13.6-9.6-19.1-16C5.1,65,2.6,61.5,1,57.4C-0.3,54-0.3,50.5,0,47c0.8-10.4,3.9-20.1,10-28.7C17.9,7.8,28.6,2.5,41.8,2.1
	c4.3-0.1,8.4,0.2,12.4,2c2,0.8,3.7,2,5,3.7c0.8,1,1.9,1.7,3,2.3c2.7,1.6,5.6,2.9,8.3,4.5c2.3,1.4,3.1,3.6,3.2,6.5
	c-0.5-0.3-0.9-0.4-1.1-0.7c-0.6-0.7-1.1-1.5-1.6-2.3c-1.3-2.4-3.5-3-6-2.9c-1.7,0.1-2.2,0.9-1.4,2.4c1,1.9,2.5,3.3,4.7,4
	c1.1,0.4,2.2,1.1,3.2,1.8c0.8,0.6,1.5,1.4,2.2,2.1c1.4,1.2,2.9,1.7,4.8,1.4c2.7-0.5,4.2,0.2,5.4,2.7c1.3,2.6,2.4,5.2,3.2,7.9
	c0.5,1.7,1.6,2.7,2.9,3.6c0.8,0.6,1.5,1.3,2.1,2.1c0.2,0.3,0.1,1.4,0,1.4c-0.5,0.2-1.3,0.2-1.8,0s-0.9-0.9-1.4-1.5
	c-0.2,1.4,1.7,2.5-0.2,3.5c-1.2,0.6-2.3,0.8-3.5-0.2c0.1,0.3,0.3,0.7,0.3,1c-0.1,0.7-0.1,1.5-0.5,2c-0.2,0.3-1.1,0.1-1.7,0.1
	c-0.3,0-0.6-0.1-0.9-0.1c0,0.3-0.1,0.6,0,0.9c0.6,1.5-0.5,3-2.2,2.7c-0.7-0.1-1.1-0.1-1.1,0.7c-0.2,2.5-0.8,2.9-2.8,2.2
	c-0.5,0.8-0.9,1.5-1.4,2.1c-0.1,0.2-0.6,0.1-0.9,0c-0.3,0-0.5-0.2-0.8-0.3c-0.1,0.3-0.3,0.6-0.3,1c0.1,1.3-0.8,1.7-1.7,1.9
	c-0.3,0.1-0.9-0.5-1.3-0.7c0,0.6,0.3,1.5-0.1,2c-0.4,0.6-1.3,1-2,1C67.4,63,66.9,62.3,66.1,61.7z M50.8,19.2
	c-3.7,0.1-6.8,1.1-8.9,4.4c-3,5-2.2,12.3,2,16.4c1.9,1.9,3.4,2,5.7,0.4c1.3-0.9,2.8-1.9,4.3-2.3c1.6-0.5,2.8-1.2,3.7-2.6
	c2.7-3.8,2-7.6,0.4-11.5C56.7,20.8,54.2,19.2,50.8,19.2z M68.7,23.7c-1.5,0.2-2.3,0.9-1.8,2.4c1,3.6,2.1,7.2,3.5,10.7
	c0.4,1,1.8,1.8,2.9,2.3c2.1,0.8,3.2-0.1,3.4-2.3c0.1-0.8,0.3-1.3,1.2-1.4c0.5-0.1,1-0.4,1.5-0.6c-0.4-0.5-0.6-1.1-1.1-1.5
	c-2.6-1.9-4.8-4.1-6.4-7c-0.2-0.4-0.5-0.9-0.9-1.2C70.3,24.6,69.5,24.2,68.7,23.7z"/>
</svg>
