<?xml version="1.0" encoding="utf-8"?>
<!-- Generator: Adobe Illustrator 19.0.0, SVG Export Plug-In . SVG Version: 6.00 Build 0)  -->
<svg version="1.1" id="Camada_1" xmlns="http://www.w3.org/2000/svg" xmlns:xlink="http://www.w3.org/1999/xlink" x="0px" y="0px"
	 viewBox="0 0 100 100" style="enable-background:new 0 0 100 100;" xml:space="preserve">
<style type="text/css">
	.st0{stroke:#FF0000;stroke-miterlimit:10;}
</style>
<path id="XMLID_1_" class="st0" d="M66.1,29.4v7.7c-0.1-0.3-0.3-0.7-0.4-1c-0.8-1.6-2-3-3.4-3.9c-1.5-1-3.1-1.7-5-2.1
	s-4-0.6-6.2-0.6H36.5v40.3L23.9,29.4H12.8L0,70.6h9.5l2.5-9.8h12.4l2.5,9.8h9.6h0.2h9V55.7h4.9l7.9,14.8h10.4L59.6,54
	c2.2-1,4-2.4,5.3-4.4c1.3-2,2-4.4,2-7.5c0-1.9-0.3-3.6-0.8-5h12.2v33.3h9.3V37.3H100v-7.8H66.1V29.4z M13.9,53.5l0.9-3.8
	c0.5-2.1,1.1-4.2,1.6-6.5s1.1-4.5,1.6-6.7h0.3c0.5,2.1,1.1,4.4,1.6,6.7s1.1,4.5,1.6,6.6l0.9,3.8L13.9,53.5L13.9,53.5z M50.3,48.4
	h-4.5V36.8h4.5c2.5,0,4.4,0.4,5.6,1.2c1.3,0.8,1.9,2.2,1.9,4.2C57.8,46.3,55.3,48.4,50.3,48.4z"/>
</svg>
