<?xml version="1.0" encoding="utf-8"?>
<!-- Generator: Adobe Illustrator 19.0.0, SVG Export Plug-In . SVG Version: 6.00 Build 0)  -->
<svg version="1.1" id="Camada_1" xmlns="http://www.w3.org/2000/svg" xmlns:xlink="http://www.w3.org/1999/xlink" x="0px" y="0px"
	 viewBox="0 0 100 100" style="enable-background:new 0 0 100 100;" xml:space="preserve">
<style type="text/css">
	.st0{stroke:#FF0000;stroke-miterlimit:10;}
</style>
<path id="XMLID_1_" class="st0" d="M13.6,44.4l0.1-0.1c0-0.1,0.1-0.1,0.1-0.2l0.1-0.1c0.1-0.1,0.2-0.2,0.4-0.3
	c1.3-1.1,2.7-2.1,4.6-1.6c0.1,0,0.2,0.2,0.3,0.3c-0.1,0.1-0.2,0.2-0.3,0.2c-2.5-0.3-4.1,1.1-5.4,3c-0.2,0.2-0.4,0.6-0.6,0.4
	c-0.3-0.1-0.2-0.5-0.2-0.8c0.3-1.4,1.3-2.4,2.1-3.5c0.5-0.8,0.4-1.3-0.4-1.9c-2.8-1.9-5.9-1-7.3,2C3.6,49.2,4.8,56,9.8,62.3
	c3.4,4.3,7.8,6.8,13.5,5.7c0.1,0,0.2-0.1,0.3-0.1c-0.1,0-0.2-0.1-0.3-0.1c-2.4-0.5-4.4-1.6-5.8-3.7c-0.4-0.6-0.6-1.2-0.4-1.8
	c0-0.1,0.1-0.2,0.2-0.3c0,0.1,0.1,0.1,0.1,0.2c0.3,2.2,1.9,3.4,3.7,4.3c2.5,1.2,5.2,1.4,7.9,1.6c0.4,0,1.1-0.1,1.1,0.3
	s-0.8,0.4-1.2,0.4c-3.3-0.6-6.6,0-9.9,0.4c-1.4,0.2-3-0.1-4.1,1.2c-0.4,0.5-1.1,0.8-1.6,1.2c-1.3,0.9-3.1,0.6-4.3,1.7
	c0.5-0.2,1-0.4,1.6-0.6c0.1,0,0.3,0,0.4-0.1c-0.1,0.1-0.2,0.2-0.3,0.2c-1.1,0.8-2.3,1.1-3.6,1.5c-0.6,0.2-1,0.7-0.9,1.2
	c0.1,0.3,0.8,0.1,1.1-0.1c1.3-0.5,2.6-1,3.8-1.5c0.2-0.1,0.5,0,0.5,0c0.1,0.3-0.2,0.3-0.4,0.4c-1.4,0.6-2.7,1.2-4.1,1.7
	c-0.1,0.1-0.4,0-0.2,0.3C7.4,76.9,7.2,77.4,7,78c-0.1,0.2-0.4,0.4-0.1,0.5s0.7,0.2,0.9-0.2c0.6-1.1,1.4-2,2.7-2.3
	c0.7-0.2,1.3-0.4,2-0.5c0.2-0.1,0.3-0.7,0.6-0.3c0.2,0.3-0.2,0.7-0.5,0.8c-0.3,0.1-0.7,0.2-1,0.3c-1.1,0.1-1.5,0.7-1.2,1.8
	c0.1,0.5,0.3,0.9,0.1,1.4c-0.1,0.1-0.1,0.2-0.1,0.3c0.1,0,0.3,0,0.4-0.1c1.3-0.9,2.7-1.5,3.9-2.5c0.9-0.8,1.8-1.6,2.9-1.8
	c2.1-0.4,3.7-1.6,5.1-3.1c0.3-0.4,0.9-0.6,1.1-0.1s0.6,0.4,0.9,0.4c2.7,0.5,5.3,1.4,8,0.6c1.4-0.4,2.9-0.2,4.1-1.1
	c1-0.7,0.8-2-0.3-2.4l0,0c0.5,1.3-0.5,1.5-1.3,1.7c-0.6,0.2-1.1,0.4-1.7,0.3c0.4-0.5,1-0.5,1.6-0.7c0.4-0.1,1-0.1,1.1-0.6
	s-0.4-0.8-0.7-1.1c-2.3-1.7-4-3.8-5.8-6c-1.8-2.2-3.5-4.5-6.7-4.7c-0.1,0-0.1-0.1-0.2-0.1c0.1-0.1,0.3-0.2,0.4-0.2
	c1.3-0.1,2.5,0.3,3.5,1.1c1.8,1.4,3.5,2.9,4.7,4.9c2.3,3.8,5.9,4.9,9.9,4.5c7.6-0.8,15.2-2,22.9-2.5c0.1,0,0.1,0,0.2,0
	c-0.1,0-0.1-0.1-0.2-0.1c-3-0.7-6.1-1.6-9.2-1.7c-2.2,0-2.5-1-1.5-2.8c2.6-4.6,7-6.7,12-7.7c0.4-0.1,0.7-0.2,0.6-0.7
	c-0.1-1-0.1-2,0.1-3c0.1-0.7,0-1.1-0.9-1.2c-3.3-0.4-6.5,0.2-9.7,0.7c-4.5,0.8-8.7,2.6-13.2,3.3C36.9,54,31.6,56.3,26,53.7
	c-2-0.9-4.4-3.7-4.2-5.9c0.1-1-1-0.7-1.5-0.9s-0.2,0.4-0.2,0.6c0,2,0.8,3.8,1.3,5.6c0.1,0.2,0.2,0.6,0,0.7c-0.2,0.1-0.5,0-0.7,0
	s-0.4-0.1-0.6-0.1c0.2,0.1,0.3,0.3,0.5,0.4c0.2,0.2,0.3,0.3,0.4,0.5c-0.2,0-0.3,0-0.5,0c-3.9-1.3-5.2-5.4-2.9-8.7
	c0.1-0.2,0.3-0.3,0.5-0.3c1.1,0.1,2.2,0.2,3.2,0.4c2.7,0.3,5.2,1.7,7.8,2.2c1.2,0.2,2.5,0.6,3.3-0.6c0.9-1.3,1.1-2.9,0-4.1
	c-1.8-2-3-4.3-4.7-6.3c-0.3-0.3-0.6-0.6-0.9-0.7c-0.4-0.1-0.5-0.1-0.7-0.6c-0.7-1.8-1.8-3.3-3.5-4.1c-1.9-0.8-3.9-1.5-4.7-3.7
	c-1.3-3.9-4.5-5.3-8-6.3c-0.4-0.1-0.9,0-1.4,0c-0.1,0-0.1,0.1-0.2,0.1c0.1,0,0.1,0.1,0.2,0.1c2.8,0.6,5,2.3,7.2,4.1
	c0.8,0.6,1.1,1.6,1,2.5c-0.2,1.3,0.4,2,1.3,2.7c0.6,0.4,1.2,0.6,1.8,0.9c0.8,0.5,1.6,1,2.1,1.9l0,0c-0.6-0.4-1.2-0.5-1.9-0.4
	c-0.2,0-0.3,0.1-0.2,0.3c0.1,0.1,0.4,0.3,0.2,0.5c0,0-0.4-0.1-0.6-0.3c-2.7-2.3-5.8-3.8-9-5.2l0,0l0,0c1.1,1.1,2.2,2.2,3.3,3.3
	c1.6,1.7,1.3,3.5-0.8,4.4c-1.1,0.5-2.2,1-3.3,1.5c-0.1,0-0.2,0.1-0.3,0.2c0.1,0,0.2,0,0.3,0c1.7-0.2,3.3,0,4.8,0.9
	c1.6,0.9,1.6,2.3,0.2,3.4c-0.4,0.3-0.7,0.7-1,1.2L13.5,44c0,0.1-0.1,0.1-0.1,0.2C13.7,44.3,13.6,44.4,13.6,44.4z M6.1,74
	c0.1,0,0.2,0,0.3-0.1l0,0C6.3,73.9,6.2,73.9,6.1,74L6.1,74L6.1,74L6.1,74z M10,37.6c1.3-0.4,2.5-1.1,3.7-1.8
	c0.1-0.1,0.1-0.3,0.2-0.4c-0.1,0-0.3,0-0.4,0.1C12.1,35.7,11.2,36.8,10,37.6L10,37.6z M18.1,23.2C18.1,23.2,18,23.1,18.1,23.2
	C18,23.1,18,23.1,18.1,23.2C18,23.1,18,23.1,18.1,23.2c0.5,0.4,1.1,0.9,1.6,1.3c0.6,0.5,1.2,1.2,1,2c-0.5,2.6,1,3.9,2.8,5.2
	c1.1,0.8,2.4,1.7,2.8,3c0.4,1.2,1.3,1.7,2.2,2.4c0,0,0.1,0,0.2,0.1c0-0.1,0-0.1,0-0.2c-0.5-2.1-1.4-4-3.2-5.4
	c-1.1-0.9-2.8-1.4-3-3.1C22.3,25.5,21,24,18.1,23.2z M6.1,57.7L6.1,57.7L6.1,57.7L6.1,57.7c-2.4-6.2-2-12.1,1.4-17.8
	c0-0.1,0-0.3,0-0.3c-1.1-0.3-0.2-0.7,0-0.9c1.1-0.9,2.4-1.4,3.4-2.5c0.1-0.1,0.1-0.2,0.2-0.3c-0.1,0-0.3,0-0.4,0
	c-1.9,0.4-3.8,0.8-5.6,1.2c-0.5,0.1-0.6,0.3-0.3,0.7c0.8,0.9,0.9,1.9,0.6,3c-0.5,2.2-2.3,3.4-3.8,4.9c-0.1,0.1-0.2,0.2-0.2,0.3
	c0.1,0,0.2,0,0.3-0.1c0.5-0.2,1.1-0.4,1.6,0.1s0.5,1,0.3,1.6C3,49.8,2.7,52,3.1,54.3c0.1,0.5,0.2,1,0.3,1.4c0.1-0.4,0.3-0.9,0.4-1.3
	c0.1-0.3,0.1-0.5,0.2-0.8c0-0.2,0.1-0.4,0.2-0.5c0.1,0.2,0.1,0.4,0.2,0.6C4.4,55.3,5,56.6,6.1,57.7z M76.8,34.6
	c-0.9,0.6-1.8,1.2-2.7,1.8c-1.5,1-2.7,2.2-3.7,3.7c-2,3.1-2.5,6.5-2.5,10c0,0.1,0,0.2,0,0.4c0-0.1,0.1-0.2,0.1-0.4
	c1.3-4,3.1-7.6,7.4-9.1c3.1-1.1,6.3-1.3,9.4-0.4c4.9,1.3,9.8,1.3,14.6-0.2c0.2-0.1,0.3-0.1,0.5-0.2c-0.2,0-0.3,0-0.5,0.1
	c-1.1,0.1-2.2,0.1-3.3-0.1c-3-0.5-5.6-2.2-8.7-2.5c-0.3,0-0.7,0.1-0.8-0.3c0-0.1,0.4-0.4,0.7-0.5c1.8-0.9,3.9-1,5.8-1.6
	c0.1,0,0.2-0.1,0.3-0.1c-0.1,0-0.1,0-0.2,0c-4.2,0.2-8.4,0.1-12.6,0.7c-2.1,0.3-3.8,1.3-5.5,2.4c-0.1,0.1-0.3,0.1-0.4,0.1
	c0.1-0.1,0.1-0.3,0.2-0.4C75.7,36.9,76.4,35.8,76.8,34.6L76.8,34.6z M61.2,74.3c0.9-0.5,1.9-0.8,2.9-1c1.7-0.4,3.4-0.6,4.9-1.7
	s3.1-2,5-2.2c0.4,0,0.6-0.3,0.5-0.4c-0.7-0.5-1.4-0.9-2.1-0.1c-0.3,0.4-0.7,0.5-1.1,0.6c0,0,0,0-0.1-0.1c0.4-0.3,0.4-0.9,1.1-1
	s0.8-0.5,0.3-1c-1.5-1.2-2.9-2.6-4.1-4.1c-0.1-0.2-0.5-0.2-0.7-0.2c-0.8-0.1-1.7,0.7-2.5-0.2c-0.2-0.2-0.8,0-0.7-0.4
	c0.1-0.5,0.6-0.2,0.9-0.1c1.8,0.4,2.5-0.1,2.1-1.4c-0.7-2-1.3-4-1.4-6.1c0-0.4-0.3-0.3-0.5-0.3c-2,0.4-3.9,0.7-5.7,1.7
	c-2.2,1.2-4.1,2.7-5.3,5c-0.8,1.5-0.5,2.2,0.9,2.4c4.8,0.7,9.5,1.7,14,3.5c0.3,0.1,0.9,0,0.8,0.4c0,0.4-0.6,0.3-1,0.3
	c-2.7,0-5.4,0-8,0.4c-0.4,0.1-0.7,0.2-1.1,0.2c0.3,0,0.7,0,1,0s0.6,0,0.9,0.1c0.1,0,0.3,0.1,0.4,0.2c-0.1,0.1-0.3,0.2-0.4,0.2
	c-1,0.1-2,0.2-2.9,0.3c-0.4,0.1-0.6,0.4-0.5,0.7c0.1,0.4,0.4,0,0.6,0c0.4-0.1,0.7-0.2,1.1-0.3c0.5-0.1,1-0.4,1.5-0.2
	c-0.3,0.6-1,0.5-1.5,0.7c-0.3,0.1-0.9,0.1-0.8,0.4c0.2,0.6,0,1-0.3,1.5c-0.1,0.1-0.1,0.2-0.1,0.3c0.1,0,0.2,0,0.4-0.1
	c1.3-0.5,2.5-1.1,3.8-1.6c0.2-0.1,0.5,0,0.5,0c0.1,0.3-0.2,0.3-0.3,0.4C61.8,71.6,61.5,73,61.2,74.3L61.2,74.3z M32.7,54.3
	c2.7,0.1,6-0.7,9.2-1.9c0.1,0,0.2-0.1,0.2-0.1c-0.1,0-0.2,0-0.3,0c-2.3,0.1-4.6,0.1-6.9-0.6c-1.1-0.3-2.2-0.8-2.2-2.1s1.1-1.7,2-2.1
	c5.1-2,10.4-2.5,15.8-2.4c0.5,0,1,0,1.5,0c-0.5-0.2-1-0.4-1.5-0.5c-6.1-1.8-12.1-3.9-18.6-3.8c-0.1,0-0.3-0.1-0.4-0.2
	c0.2,0,0.4-0.1,0.5-0.1c4,0.3,8,0.7,12,1.5c0.4,0.1,0.6,0.1,0.4-0.4c-0.3-0.9,0.2-1.5,1.1-1.8c5-1.8,10.1-3.4,15.4-4.5
	c0.5-0.1,1-0.2,1.6-0.3c-0.6-0.1-1.1-0.2-1.7-0.2c-4.6-0.4-9.3,0-13.9,0.1c-3.7,0.1-7.4,0.1-11.1,0.7c-0.2,0-0.4,0-0.6,0
	c0.2-0.1,0.4-0.2,0.5-0.2c0.7-0.1,1.3-0.3,2-0.4c7.1-0.9,14.2-1,21.4-0.9c0.3,0,0.5,0,0.8,0c-0.2-0.1-0.4-0.3-0.6-0.4
	c-0.3-0.3-0.5-0.6-0.6-1.1c-0.3-1.4,0.5-2.6,2.5-3.5c6.7-3,13.1-6.7,20.3-8.6c0.1,0,0.1-0.1,0.2-0.1c-0.1,0-0.1,0-0.2,0
	c-2.2,0-4.4-0.3-6.6-0.1c-2.9,0.2-5.9,0.2-8.8,0.3c-9.4,0.4-18.7,1.2-27.9,3.5c-4.3,1.1-8.6,2.1-12,5.2c-1.1,1-1.7,1.7,0,2.6
	c0.2,0.1,0.3,0.6,0.6,0.2c1.3-1.9,3.1-3.3,5-4.4c3.9-2.2,8.3-2.8,12.6-3.6c7.1-1.3,14.3-1.7,21.5-2.3c0.1,0,0.2,0,0.4,0.1
	c-0.2,0-0.3,0.1-0.5,0.1c-6.5,0.8-12.9,1.6-19.4,2.8C40,25.9,33.2,26.5,28,31.3c-0.5,0.5-1.4,0.9-0.5,1.9c1.3,1.3,2.1,2.9,2.4,4.8
	c0.2,1.2,0.8,2.3,1.6,3.2c0.6,0.6,1.2,1.2,1.7,1.9c1,1.5,1.1,3,0.1,4.5c-0.9,1.4-2.2,1.6-3.7,1.4c-2.2-0.3-4.4-0.8-6.6-1.4
	c-0.6-0.2-0.7-0.1-0.7,0.5c0,1.2,0.6,2.2,1.4,3.1C25.8,54,28.8,54.3,32.7,54.3z M67.4,50.2c-0.1,0-0.1,0-0.2,0c0-0.4,0-0.9,0-1.3
	c0-0.1,0-0.3,0-0.4c-0.1,0.1-0.1,0.2-0.2,0.4c-0.2,1.2-0.3,2.4-0.4,3.6c-0.3,3.6,0.1,7.1,2.1,10.2c4.7,7.2,11.9,9.5,19.9,9.7
	c4.5,0.1,7.8-3.6,7.7-7.4c-0.1-3.3-2.3-5.9-6.3-7.2c-1.9-0.6-3.9-1-5.5-2.3c-3.1-2.5-6.7-3.9-10.6-4.6c-3.3-0.6-3.2-0.6-3.7,2.5
	c-0.2,1.4,0.3,1.5,1.4,1.4c1.9-0.1,3.7,0.4,5.5,1c0.2,0.1,0.4,0.3,0.6,0.5c-0.3,0-0.6,0.1-0.8,0C75,55.6,73,55.1,71,55
	c-0.6,0-0.8,0.2-0.6,0.8c0.4,1.6,1.1,3.1,2.2,4.3c2,2.2,4.7,3.1,7.4,4.2c1.3,0.5,2.1,0.4,3.1-0.5c1.1-1,2.2-0.7,3.2,0
	c0.2,0.1,0.3,0.2,0.5,0.3c0-0.2,0-0.4,0.1-0.6c0-0.2,0.1-0.4,0.1-0.5c0.1,0,0.2,0,0.3,0.1c0.4,0.5,0.5,1.1,0.4,1.7s-0.5,0.9-1,1
	c-1.6,0.2-3.1-0.3-4.7-0.5c-3.5-0.6-6.8-1.7-9.2-4.3c-4.5-4.9-4-11.7,1-16.1c2.3-2.1,5.2-3,8.1-3.9c0.1,0,0.3-0.1,0.4-0.2
	c-0.1,0-0.3-0.1-0.4-0.1c-1,0-2,0-3,0.1c-2.8,0.4-5.5,1-7.3,3.5c-2.3,3.2-3.3,6.8-3.9,10.5c0,0.1-0.1,0.2-0.1,0.3
	c0-0.1-0.1-0.2-0.1-0.3C67.4,53.2,67.4,51.7,67.4,50.2z M83.8,41c-4.4,0.7-8.3,2.3-11.2,6c-0.3,0.3-0.5,0.7-0.7,1.1
	c0.4,0,0.8,0,1.2,0c0.1,0,0.2,0,0.3,0c3-0.1,5.8,0.7,8.6,1.4c0.1,0,0.2,0,0.3,0c0-0.1-0.1-0.1-0.1-0.2c-1.7-1.2-3.3-2.4-5.4-2.8
	c-0.2,0-0.3-0.2-0.4-0.3c0.1-0.1,0.3-0.1,0.4-0.2c1.4-0.2,2.7,0.2,4,0.7c2.6,0.9,5.1,2.2,7.8,2.8c0.2,0,0.4,0,0.6,0.1
	c-0.1-0.2-0.3-0.3-0.4-0.5c-1.1-0.9-2.3-1.8-3.4-2.7c-0.1-0.1-0.3-0.3-0.4-0.4c0.2-0.1,0.4-0.2,0.6-0.2c4.4-0.8,8,0.9,11.5,3.2
	c0.3,0.2,0.6,0.4,1,0.6c-0.2-0.3-0.4-0.7-0.6-1c-3.2-3.3-7.2-5.1-11.2-7C85.6,41.1,84.7,41.1,83.8,41z M22.9,28.5
	c-0.2,0.8,0.6,1.4,1.5,1.8c0.5,0.2,0.7-0.5,1.1-0.9c3.6-3.5,8.2-5.1,13-6c4.2-0.9,8.7-0.9,11.9-4.4c0.2-0.2,0.4-0.2,0.7-0.3l0.1-0.1
	h-0.1c-2.3,0.6-4.6,0.5-6.9,0.9c-7.4,1.4-15,2.1-22.2,5c-0.4,0.2-0.3,0.2-0.1,0.5C22.4,25.9,23.1,26.9,22.9,28.5z M8.8,67.7
	c1.5,0.1,3,0.1,4.5-0.3c0.2-0.1,0.3-0.1,0.5-0.2c-0.1-0.1-0.2-0.3-0.4-0.4c-1.7-1.5-3.5-2.8-4.9-4.6c-0.3-0.4-0.4-1-1-1.2
	c-0.2,0.6-0.2,1.3-0.1,2c0.2,1.3,1.2,1.8,2.3,2.4c0.2,0.1,0.2,0.3,0.4,0.5c-0.1,0-0.3,0.2-0.4,0.1c-3.5-0.4-6,1.6-8.6,3.4
	C0.3,70,0,70.9,0.4,71.9s1.1,1.4,2.1,1.4c1.3,0,2.5-0.1,3.8-0.2c1.1-0.1,2.2,0.2,3.2-0.4c0.1,0,0.4,0,0.2-0.3
	c-0.1-0.1-0.5,0-0.3-0.3c0.1-0.1,0.4-0.2,0.6-0.2c0.5,0,1,0.1,1.4,0s0.8-0.3,1.2-0.5c-0.4-0.1-0.8-0.1-1.2-0.2c-0.2,0-0.4,0-0.6,0
	c-0.2,0-0.4-0.1-0.6-0.1c0.2-0.1,0.4-0.3,0.6-0.3c1.8,0,3.7,0,5.1-1.4c0.1-0.1,0.1-0.1,0.2-0.2c-0.1,0-0.2-0.1-0.3-0.1
	c-1-0.3-2-0.2-3-0.1c-0.4,0.1-1.2,0.2-1.2-0.2c0-0.5,0.8-0.2,1.2-0.3c0.4-0.1,0.7-0.2,1.1-0.3c-0.4,0-0.7,0-1.1,0
	c-0.3,0-0.6,0.1-1,0.2c-2.1,0.6-4.4-0.5-6.5,0.4c-0.1,0-0.5-0.2-0.5-0.4C4.7,68,5,68,5.1,68C6.4,67.9,7.6,67.8,8.8,67.7z M42.1,51.7
	c1.3-0.1,2.3,0,3.3-0.2c3.9-0.6,7.7-1.9,11.6-2.3c0.4,0,0.8-0.2,1.2-0.3c-0.4-0.1-0.8-0.1-1.1-0.2c-0.4-0.1-0.8-0.2-1-0.6
	c-0.1-0.1,0.1-0.3,0.2-0.5c0.3-0.4,0.7-0.7,1-1.1c-0.5,0.1-1.1,0.2-1.6,0.3l0,0c-2.7,0.9-5.5,1.9-8.2,2.8c-0.9,0.3-1.5-0.1-1.5-1.1
	c0-0.6-0.2-0.4-0.5-0.2c-2,1-3.8,2.3-5.9,3.1c-0.1,0-0.1,0.1-0.2,0.1c0.1,0,0.2,0.1,0.3,0.1C40.5,51.7,41.5,51.7,42.1,51.7z
	 M8.7,35.6c0,0.2,0,0.4,0.3,0.3c1.6-0.5,3.2-1,4.7-1.5c0.5-0.2,0.5-0.5,0.2-0.9c-0.9-0.9-1.9-1.8-2.8-2.7c0,0-0.2,0-0.3,0
	C9.6,32.2,8.9,33.7,8.7,35.6z M17,48.7c0,2.7,1.3,4.3,3.4,4.5c0.1,0,0.2,0,0.3,0c-0.1-0.1-0.2-0.1-0.3-0.2c-1-0.4-2-0.9-2.7-1.9
	c-0.1-0.1-0.1-0.3-0.1-0.5c0.1,0.1,0.3,0.1,0.4,0.3c0.5,0.7,1.3,1.1,2,1.4c0.1,0,0.2,0.1,0.4,0.1c0-0.1,0-0.3,0-0.4
	c-0.6-1.4-0.8-2.9-0.8-4.4c0-1-0.6-1.2-1.3-1.3c-0.7-0.1-0.8,0.5-0.9,0.9C17.2,47.8,17.1,48.4,17,48.7z M19.7,33.2
	c0.2,0,0.4-0.1,0.6-0.1c-0.2-0.1-0.3-0.2-0.5-0.3c-0.7-0.5-1.4-0.9-2.1-1.4c-1.1-0.7-1.9-1.5-1.5-3c0.2-0.7-0.1-1.3-1-0.8
	c-1,0.4-1.9,0.9-2.9,1.3c-0.1,0.1-0.2,0.2-0.3,0.3c0.1,0.1,0.2,0.2,0.3,0.2c2.2,0.9,4.2,2.2,6.2,3.5C18.9,33.1,19.3,33.3,19.7,33.2z
	 M19.5,25.5c-0.5,0.4-1.5,0.3-1.5,1c-0.1,1.7,1.5,3.6,3.1,4.1c0.1,0,0.2,0,0.4,0c-0.1-0.1-0.1-0.2-0.2-0.3c-1.1-1.1-2.1-2.1-1.1-3.9
	C20.3,26.2,19.9,25.8,19.5,25.5z M6.5,77.4c-0.1-0.2-0.1-0.7-0.4-0.7c-1,0-1.6,0.6-2,1.4c-0.2,0.3-0.5,0.7-0.3,1.1l0,0
	C4.4,79.5,6.5,78.2,6.5,77.4z M7.9,80.7c0,0,0,0.1,0.1,0.2c0.9-0.5,1.7-1.1,2-2.2c0.1-0.2,0-0.5-0.3-0.5C8.2,78.3,8.1,79.5,7.9,80.7
	z M85.3,65.3c0.2-0.1,0.5-0.3,0.8-0.5c-0.3-0.4-0.6-1-1.2-1s-1,0.6-1.4,1C84.1,65,84.7,65.1,85.3,65.3z M57.3,73.4
	c-0.1,0.4,0.2,0.3,0.4,0.2c0.7-0.5,0.9-1.3,1.2-2c0.1-0.2-0.1-0.2-0.2-0.1C58,71.9,57.4,72.4,57.3,73.4z M4,75.9
	C5,76,5.5,75.7,5.6,75c0-0.2-0.1-0.3-0.3-0.3c-0.8,0.1-1.3,0.5-1.7,1.1C3.9,75.8,4.1,75.9,4,75.9z M60.9,73.2
	c-0.1-0.2-0.1-0.3-0.2-0.4c-0.1,0.1-0.3,0.1-0.3,0.2c-0.2,0.6-0.5,1.2-0.7,1.8c0,0.1,0,0.1,0.1,0.2h0.1
	C60.2,74.3,60.6,73.7,60.9,73.2z M56.7,71.9c0.7-0.4,0.9-1,1.4-1.6c-0.1,0-0.1-0.1-0.2-0.1C57.2,70.5,57,71.2,56.7,71.9
	C56.6,71.8,56.7,71.9,56.7,71.9z M59.7,68.8C59.7,68.8,59.7,68.7,59.7,68.8C59.6,68.8,59.6,68.8,59.7,68.8
	C59.6,68.8,59.6,68.8,59.7,68.8L59.7,68.8z M59.3,68.9L59.3,68.9L59.3,68.9L59.3,68.9z"/>
</svg>
