<?xml version="1.0" encoding="utf-8"?>
<!-- Generator: Adobe Illustrator 19.0.0, SVG Export Plug-In . SVG Version: 6.00 Build 0)  -->
<svg version="1.1" id="Camada_2" xmlns="http://www.w3.org/2000/svg" xmlns:xlink="http://www.w3.org/1999/xlink" x="0px" y="0px"
	 viewBox="0 0 100 100" style="enable-background:new 0 0 100 100;" xml:space="preserve">
<style type="text/css">
	.st0{fill:#E94E1B;}
</style>
<rect id="XMLID_1_" class="st0" width="100" height="100"/>
<path id="XMLID_17_" d="M69.8,14.2c-5.9,8.9-9.4,20.6-9.8,33.3h-7.5V0h-5v47.5H40C39.3,27.5,30.9,7,13.5,0H0v2.5
	c23.2,0,34.2,22.9,35,45H0v5h35C34.6,64.2,31.4,74.9,26,83c-4.4,6.6-12.5,14.5-26,14.5v2.5h13.5C30.9,93,39.3,72.5,40,52.5h7.5V100
	h5V52.5H60c0.6,20,9.1,40.5,26.5,47.5H100v-2.5c-23.2,0-34.2-22.9-35-45h35v-5H65c0.8-22.1,11.8-45,35-45V0H86.7
	C80,2.7,74.3,7.5,69.8,14.2z"/>
</svg>
