<?xml version="1.0" encoding="utf-8"?>
<!-- Generator: Adobe Illustrator 19.0.0, SVG Export Plug-In . SVG Version: 6.00 Build 0)  -->
<svg version="1.1" id="Camada_1" xmlns="http://www.w3.org/2000/svg" xmlns:xlink="http://www.w3.org/1999/xlink" x="0px" y="0px"
	 viewBox="0 0 100 100" style="enable-background:new 0 0 100 100;" xml:space="preserve">
<style type="text/css">
	.st0{fill:#FFFFFF;}
</style>
<g id="XMLID_1_">
	<polygon id="XMLID_67_" class="st0" points="61.8,27.5 73.7,7 70.2,1 29.8,1 26.3,7 38.2,27.5 	"/>
	<polygon id="XMLID_68_" class="st0" points="61.8,72.5 38.2,72.5 26.3,93 29.8,99 70.2,99 73.7,93 	"/>
	<polygon id="XMLID_74_" class="st0" points="1,8 1,49 24.5,49 36.4,28.5 24.5,8 	"/>
	<polygon id="XMLID_76_" class="st0" points="1,51 1,92 24.5,92 36.4,71.5 24.5,51 	"/>
	<polygon id="XMLID_77_" class="st0" points="99,49 99,8 75.4,8 63.6,28.5 75.4,49 	"/>
	<polygon id="XMLID_85_" class="st0" points="99,92 99,51 75.4,51 63.6,71.5 75.4,92 	"/>
</g>
<path id="XMLID_15_" d="M0,0v100h100V0H0z M29.8,1h40.4l3.5,6L61.8,27.5H38.2L26.3,7L29.8,1z M1,8h23.5l11.8,20.5L24.5,49H1V8z
	 M1,92V51h23.5l11.8,20.5L24.5,92H1z M70.2,99H29.8l-3.5-6l11.8-20.5h23.7L73.7,93L70.2,99z M99,92H75.4L63.6,71.5L75.4,51H99V92z
	 M99,49H75.4L63.6,28.5L75.4,8H99V49z"/>
</svg>
