<?xml version="1.0" encoding="utf-8"?>
<!-- Generator: Adobe Illustrator 19.0.0, SVG Export Plug-In . SVG Version: 6.00 Build 0)  -->
<svg version="1.1" xmlns="http://www.w3.org/2000/svg" xmlns:xlink="http://www.w3.org/1999/xlink" x="0px" y="0px"
	 viewBox="0 0 100 100" style="enable-background:new 0 0 100 100;" xml:space="preserve">
<style type="text/css">
	.st0{fill:#808080;}
</style>
<g id="Camada_2_1_">
	<g>
		<path class="st0" d="M50,99.5C22.7,99.5,0.5,77.3,0.5,50C0.5,22.7,22.7,0.5,50,0.5c27.3,0,49.5,22.2,49.5,49.5
			C99.5,77.3,77.3,99.5,50,99.5z"/>
		<path d="M50,1c27,0,49,22,49,49S77,99,50,99S1,77,1,50S23,1,50,1 M50,0C22.4,0,0,22.4,0,50s22.4,50,50,50s50-22.4,50-50
			S77.6,0,50,0L50,0z"/>
	</g>
</g>
<g id="Camada_1">
	<polygon id="XMLID_1_" points="11.8,48.1 37.3,3.9 62.8,48.1 	"/>
	<polygon id="XMLID_3_" points="58.6,58 78.2,24.1 97.8,58 	"/>
	<polygon id="XMLID_4_" points="45.1,91 60.3,64.6 75.5,91 	"/>
	<polygon id="XMLID_5_" points="50,22.9 59,7.3 67.9,22.9 	"/>
	<polygon id="XMLID_6_" points="73.8,75.3 79.6,65.3 85.4,75.3 	"/>
	<polygon id="XMLID_7_" points="43.5,62.2 48.4,53.7 53.3,62.2 	"/>
	<polygon id="XMLID_8_" points="12.6,80.8 31.3,48.4 50,80.8 	"/>
</g>
</svg>
