<?xml version="1.0" encoding="utf-8"?>
<!-- Generator: Adobe Illustrator 19.0.0, SVG Export Plug-In . SVG Version: 6.00 Build 0)  -->
<svg version="1.1" id="Camada_1" xmlns="http://www.w3.org/2000/svg" xmlns:xlink="http://www.w3.org/1999/xlink" x="0px" y="0px"
	 viewBox="0 0 100 100" style="enable-background:new 0 0 100 100;" xml:space="preserve">
<style type="text/css">
	.st0{fill:#808080;}
</style>
<g>
	<rect x="0.5" y="0.5" class="st0" width="99" height="99"/>
	<g>
		<path d="M99,1v98H1V1H99 M100,0H0v100h100V0L100,0z"/>
	</g>
</g>
<polygon points="86.7,46.8 100,46.8 100,23.7 "/>
<polygon points="12.2,2.6 0,23.7 0,46.8 37.7,46.8 "/>
<polygon points="43,56.8 82.2,56.8 62.6,22.9 "/>
<polygon points="22.5,5.2 52.9,5.2 49.9,0 25.5,0 "/>
<polygon points="25.5,100 49.9,100 37.7,78.8 "/>
<polygon points="43.4,7.3 34.4,22.9 52.3,22.9 "/>
<polygon points="56.8,83.8 68.4,83.8 62.6,73.8 "/>
<polygon points="27.9,62.2 37.7,62.2 32.8,53.7 "/>
<polygon points="86.7,83.8 100,83.8 100,60.8 "/>
<polygon points="5.4,51.5 0,60.8 0,83.8 24.1,83.8 "/>
</svg>
