<?xml version="1.0" encoding="utf-8"?>
<!-- Generator: Adobe Illustrator 19.0.0, SVG Export Plug-In . SVG Version: 6.00 Build 0)  -->
<svg version="1.1" id="Camada_4" xmlns="http://www.w3.org/2000/svg" xmlns:xlink="http://www.w3.org/1999/xlink" x="0px" y="0px"
	 viewBox="0 0 100 100" style="enable-background:new 0 0 100 100;" xml:space="preserve">
<path id="XMLID_1_" d="M88.9,61.5c1.7-4.9-0.5-8.9-0.5-8.9l4,0.7c2.1-6.5-5.6-13.6-5.6-13.6l3-1c-5.6-14.3-18-12.2-18-12.2
	s-1.6-5.4-8.4-8.4c0.5-7,5.6-11.7,5.6-11.7C56.1,1.3,47,13.9,47,13.9S35,12,26.2,16.7l4.7,3c0,0-6.5,0.7-11.4,2.3
	c0,0-0.9-6.5,0-12.4c-24.8,12-14,41.3-8,44.8c-1.1,2.8,0.2,7.1,0.2,7.1C3.7,61,0,63.8,0,63.8c6.3,20.8,15.6,20.1,15.6,20.1
	c20.5,24.7,59.1,0.2,59.1,0.2s15,3.5,25.3-18.7C100,65.4,96.2,61.5,88.9,61.5z M13.8,64.3c0,0,11.4-13.6,21,3.5
	C34.8,67.8,25.1,61.5,13.8,64.3z M27.5,82.6c1.9,0,3.7-0.1,5.6-0.2l2.9,2.3l0.6-2.7c6.6-1,12.9-2.8,17.7-4.4l2.8,2.2l0.8-3.5
	c3-1.1,4.8-2,4.8-2C51.1,93.6,27.5,82.6,27.5,82.6z M49.4,65.8c9.5-17,21-3.5,21-3.5C59.1,59.4,49.4,65.8,49.4,65.8z"/>
</svg>
