<?xml version="1.0" encoding="utf-8"?>
<!-- Generator: Adobe Illustrator 19.0.0, SVG Export Plug-In . SVG Version: 6.00 Build 0)  -->
<svg version="1.1" id="Camada_1" xmlns="http://www.w3.org/2000/svg" xmlns:xlink="http://www.w3.org/1999/xlink" x="0px" y="0px"
	 viewBox="0 0 100 100" style="enable-background:new 0 0 100 100;" xml:space="preserve">
<style type="text/css">
	.st0{fill:#808080;}
</style>
<g>
	<rect x="0.5" y="0.5" class="st0" width="99" height="99"/>
	<g>
		<path d="M99,1v98H1V1H99 M100,0H0v100h100V0L100,0z"/>
	</g>
</g>
<g id="Camada_1_1_">
	<polygon id="XMLID_16_" points="84.8,29.1 100,36.5 100,18.8 	"/>
	<polygon id="XMLID_17_" points="27,0.6 0,18.8 0,36.5 30.6,51.5 	"/>
	<polygon id="XMLID_18_" points="39.9,51.6 77.9,61 67,23.4 	"/>
	<polygon id="XMLID_19_" points="32.1,0.5 61.8,7.3 59.5,0 32.6,0 	"/>
	<polygon id="XMLID_20_" points="32.6,100 59.5,100 52.8,78.2 	"/>
	<polygon id="XMLID_21_" points="52.8,22.2 35,23.9 45.3,38.5 	"/>
	<polygon id="XMLID_22_" points="76.9,3.4 76.7,0 70.1,0 	"/>
	<polygon id="XMLID_23_" points="66.5,98.2 70.1,100 76.7,100 76.2,91.8 	"/>
	<polygon id="XMLID_24_" points="32.4,64.4 39.7,57.7 30.2,54.8 	"/>
	<polygon id="XMLID_25_" points="97.5,53.7 98,91.1 100,89.9 100,55.2 	"/>
	<polygon id="XMLID_26_" points="0,55.2 0,89.9 30.1,71.9 	"/>
</g>
</svg>
