<?xml version="1.0" encoding="utf-8"?>
<!-- Generator: Adobe Illustrator 19.0.0, SVG Export Plug-In . SVG Version: 6.00 Build 0)  -->
<svg version="1.1" id="Camada_1" xmlns="http://www.w3.org/2000/svg" xmlns:xlink="http://www.w3.org/1999/xlink" x="0px" y="0px"
	 viewBox="0 0 100 100" style="enable-background:new 0 0 100 100;" xml:space="preserve">
<style type="text/css">
	.st0{fill:#808080;}
</style>
<g>
	<rect x="0.5" y="0.5" class="st0" width="99" height="99"/>
	<g>
		<path d="M99,1v98H1V1H99 M100,0H0v100h100V0L100,0z"/>
	</g>
</g>
<g id="Camada_1_1_">
	<polygon id="XMLID_1_" points="2.3,46.8 27.8,2.6 53.3,46.8 	"/>
	<polygon id="XMLID_3_" points="58.6,56.8 78.2,22.9 97.8,56.8 	"/>
	<polygon id="XMLID_4_" points="38.1,97 53.3,70.6 68.5,97 	"/>
	<polygon id="XMLID_5_" points="50,22.9 59,7.3 67.9,22.9 	"/>
	<polygon id="XMLID_6_" points="72.4,83.8 78.2,73.8 84,83.8 	"/>
	<polygon id="XMLID_7_" points="43.5,62.2 48.4,53.7 53.3,62.2 	"/>
	<polygon id="XMLID_8_" points="2.3,83.8 21,51.5 39.7,83.8 	"/>
</g>
</svg>
