<?xml version="1.0" encoding="utf-8"?>
<!-- Generator: Adobe Illustrator 19.0.0, SVG Export Plug-In . SVG Version: 6.00 Build 0)  -->
<svg version="1.1" id="Camada_1" xmlns="http://www.w3.org/2000/svg" xmlns:xlink="http://www.w3.org/1999/xlink" x="0px" y="0px"
	 viewBox="0 0 100 100" style="enable-background:new 0 0 100 100;" xml:space="preserve">
<style type="text/css">
	.st0{fill:#808080;}
</style>
<g>
	<rect x="0.7" y="0.5" class="st0" width="99" height="99"/>
	<g>
		<path d="M99.2,1v98h-98V1H99.2 M100.2,0H0.2v100h100V0L100.2,0z"/>
	</g>
</g>
<g id="Camada_1_1_">
	<polygon id="XMLID_1_" points="2,30.6 44.3,2.1 47.8,53 	"/>
	<polygon id="XMLID_3_" points="57.1,53.1 84.3,24.9 95.1,62.5 	"/>
	<polygon id="XMLID_4_" points="62.8,65.2 71.7,94.2 42.1,87.5 	"/>
	<polygon id="XMLID_5_" points="64.3,28 53.9,13.4 71.7,11.7 	"/>
	<polygon id="XMLID_6_" points="76.5,85.2 86.1,78.8 86.9,90.3 	"/>
	<polygon id="XMLID_7_" points="49.7,65.9 47.5,56.3 56.9,59.2 	"/>
	<polygon id="XMLID_8_" points="15.3,92.6 14.7,55.2 47.3,73.4 	"/>
</g>
</svg>
